<?xml version="1.0" standalone="no"?>
<!DOCTYPE svg PUBLIC "-//W3C//DTD SVG 20010904//EN"
 "http://www.w3.org/TR/2001/REC-SVG-20010904/DTD/svg10.dtd">
<svg version="1.0" xmlns="http://www.w3.org/2000/svg"
 width="150.000000pt" height="113.000000pt" viewBox="0 0 150.000000 113.000000"
 preserveAspectRatio="xMidYMid meet">
<metadata>
Created by potrace 1.16, written by Peter Selinger 2001-2019
</metadata>
<g transform="translate(0.000000,113.000000) scale(0.100000,-0.100000)"
fill="#000000" stroke="none">
<path d="M663 802 l-73 -36 0 -52 0 -51 105 -53 c58 -29 105 -54 105 -56 0 -2
-11 -11 -25 -20 -23 -15 -28 -14 -99 20 -41 20 -77 36 -81 36 -3 0 -5 -21 -3
-47 3 -45 6 -49 45 -69 23 -12 57 -30 76 -42 l34 -20 82 42 82 41 -3 54 -3 54
-102 51 c-57 28 -103 54 -103 57 0 4 13 12 29 19 26 10 36 8 100 -24 39 -20
73 -36 76 -36 3 0 5 22 5 49 l0 49 -76 36 c-42 20 -81 36 -88 35 -6 0 -44 -17
-83 -37z"/>
</g>
</svg>
